<?xml version="1.0" encoding="utf-8"?>
<!-- Generator: Adobe Illustrator 26.0.1, SVG Export Plug-In . SVG Version: 6.00 Build 0)  -->
<svg version="1.1" id="Layer_1" xmlns="http://www.w3.org/2000/svg" xmlns:xlink="http://www.w3.org/1999/xlink" x="0px" y="0px"
	 viewBox="0 0 700 700" style="enable-background:new 0 0 700 700;" xml:space="preserve">
<style type="text/css">
	.st0{fill:#FFFFFF;}
</style>
<symbol  id="e" viewBox="-7.7 -7.8 15.4 15.7">
	<path d="M7.7-1.5v9.3H2.8V0.7c0-1.3,0-2.2-0.1-2.7S2.5-2.9,2.4-3.1C2.2-3.5,1.9-3.7,1.6-3.9C1.3-4.1,0.9-4.1,0.5-4.1
		c-1,0-1.8,0.4-2.4,1.2c-0.6,0.8-0.9,1.9-0.9,3.3v7.5h-4.9V-7.5h4.9v2.2c0.7-0.9,1.5-1.5,2.3-2c0.8-0.4,1.8-0.6,2.8-0.6
		c1.8,0,3.1,0.5,4,1.6C7.2-5.1,7.7-3.5,7.7-1.5L7.7-1.5z"/>
</symbol>
<path class="st0" d="M443.4,283.8c0,4.1-1.6,8-4.5,10.9c-2.9,2.9-6.8,4.5-10.9,4.5c-8.5,0-15.4-6.9-15.4-15.4V109.8H48.2v271.5
	h179.6c8.6,0,15.6,7,15.6,15.6c0,8.6-7,15.6-15.6,15.6H32.6c-8.5,0-15.4-6.9-15.4-15.4V94.4c0-8.5,6.9-15.4,15.4-15.4H428
	c4.1,0,8,1.6,10.9,4.5c2.9,2.9,4.5,6.8,4.5,10.9L443.4,283.8z"/>
<path class="st0" d="M443.4,94.4v77.7c0,23.7-9.4,46.3-26.2,63c-16.8,16.7-39.4,26.1-63.1,26.1H106.3c-23.6-0.1-46.2-9.5-62.9-26.1
	c-16.7-16.7-26.1-39.3-26.2-62.9V94.4h30.8l0,77.7c0,15.4,6,30.2,16.9,41c10.9,10.9,25.7,17,41.1,17.2h248.1
	c15.4,0,30.2-6.2,41.1-17.2c11.1-10.7,17.4-25.6,17.4-41V94.4H443.4z"/>
<path class="st0" d="M300.8,109.8H153V46.2c0-10.1,4-19.8,11.2-26.9C171.3,12,181,7.9,191.2,8h86.9c10.1,0,19.7,4,26.7,11.2
	c7.2,7.1,11.2,16.8,11.2,26.9v14.7h-30.8V46.2c0-1.9-0.8-3.7-2.2-5c-1.4-1.3-3.2-2.1-5.1-2h-86.7c-2,0-3.9,0.7-5.3,2
	c-1.3,1.3-2,3.1-1.9,5v32.7h116.8L300.8,109.8z"/>
<path class="st0" d="M145.2,215.6c0-8.5,6.9-15.4,15.4-15.4c4.1,0,8,1.6,10.9,4.5c2.9,2.9,4.5,6.8,4.5,10.9v62.7
	c0,4.1-1.6,8-4.5,10.9c-2.9,2.9-6.8,4.5-10.9,4.5c-8.5,0-15.4-6.9-15.4-15.4V215.6z"/>
<path class="st0" d="M287.4,215.6c0-8.5,6.9-15.4,15.4-15.4c4.1,0,8,1.6,10.9,4.5c2.9,2.9,4.5,6.8,4.5,10.9v62.7
	c0,4.1-1.6,8-4.5,10.9c-2.9,2.9-6.8,4.5-10.9,4.5c-8.5,0-15.4-6.9-15.4-15.4V215.6z"/>
<path class="st0" d="M147.2,420.2l239-120c4.3-2.4,9.5-2.4,13.9,0l238.6,120c7.6,3.8,10.6,13,6.9,20.6c-1.4,3-3.8,5.4-6.9,6.8
	L400,567.6c-4.3,2.4-9.5,2.4-13.9,0l-239-120.1c-7.5-3.8-10.6-13.1-6.8-20.6C141.8,424,144.2,421.6,147.2,420.2L147.2,420.2z
	 M393,331.2L188.6,434L393,536.7L597.3,434L393,331.2z"/>
<path class="st0" d="M557.6,462.9c0-8.5,6.9-15.4,15.4-15.4c8.5,0,15.4,6.9,15.4,15.4v127.3l-6.3,4.6
	c-46.2,33.3-118.2,55.3-193.3,55.3c-64.7,0-131.8-16.2-186.8-55l-6.6-4.6l0-78.6c0-8.5,6.9-15.4,15.4-15.4c4.1,0,8,1.6,10.9,4.5
	c2.9,2.9,4.5,6.8,4.5,10.9v62.3c48,31.6,106.1,44.7,162.4,44.7c65.2,0,127.5-17.6,168.6-44.5L557.6,462.9z"/>
<path class="st0" d="M645.6,589.8l37.6,74.8l0,0c1.8,3.7,2.1,7.9,0.7,11.8c-1.3,3.9-4.1,7.1-7.8,8.8c-2.1,1.1-4.4,1.7-6.8,1.8h-75
	c-8.5,0-15.4-6.9-15.4-15.4c0.1-2.7,0.8-5.3,2.2-7.7l37-73.5h0c3.8-7.5,13.1-10.6,20.6-6.8c3,1.4,5.4,3.8,6.9,6.8L645.6,589.8z
	 M644.3,656.1L632,631.3l-12.5,24.8H644.3z"/>
<path class="st0" d="M616.4,434h31v162.8h-31V434z"/>
<g>
	<defs>
		<rect id="SVGID_1_" x="473.3" y="644" width="700" height="700"/>
	</defs>
	<clipPath id="SVGID_00000017493773688049356660000002983953577870089617_">
		<use xlink:href="#SVGID_1_"  style="overflow:visible;"/>
	</clipPath>
	<g style="clip-path:url(#SVGID_00000017493773688049356660000002983953577870089617_);">
		
			<use xlink:href="#e"  width="15.4" height="15.7" x="-7.7" y="-7.8" transform="matrix(1 0 0 1 483.3359 636.1564)" style="overflow:visible;"/>
	</g>
</g>
</svg>
